# xmcd
#
# Track frame offsets:
#	182
#	13667
#	24817
#	38070
#	51157
#	65052
#	73805
#	86342
#	96605
#	111345
#	122740
#	136122
#	147725
#	160200
#	172775
#	184715
#	197207
#	210572
#	227315
#	237357
#	247242
#	260832
#	271190
#	284915
#	295937
#
# Disc length: 4080 seconds
#
# Revision: 3
# Processed by: cddbd v1.5.1PL0 Copyright (c) Steve Scherf et al.
# Submitted via: audiograbber 1.83.01
#
DISCID=7f0fee19
DTITLE=Various Artist - Shades Of Country
DYEAR=1996
DGENRE=Country
TTITLE0=Kenny Rogers - Ruby, Don't Take Your Love To Town
TTITLE1=Roger Miller - King Of The Road
TTITLE2=Don Williams - Where Do We Go From Here?
TTITLE3=Johnny Darrell - The Son Of Hickory Holler's Tramp
TTITLE4=Charlie Pride - Can't Stop The Mississippi
TTITLE5=Waylon Jennings - Love's Gonna Live Here
TTITLE6=Johnny Cash - I Still Miss Someone (Live)
TTITLE7=Carl Perkins - Daddy Sang Bass
TTITLE8=Roger Miller - Me and Bobby Mghee
TTITLE9=George Jones - Talk Back Trembling Lips
TTITLE10=Johnny Russell - Catfish John
TTITLE11=Charlie Pride - Louisiana Man (Live)
TTITLE12=Charlie Rich - Behind Closed Doors
TTITLE13=Kenny Rogers - Reuben James
TTITLE14=Roger Miller - Little Green Apples
TTITLE15=Johnny Paycheck - Take This Job And Shove It
TTITLE16=Charlie Rich - The Most Beautiful Girl
TTITLE17=Johnny Cash - The City Of New Orleans (Live)
TTITLE18=Porter Wagoner - Green Green Grass Of Home
TTITLE19=Hank Locklin - Please Help Me I'm Falling
TTITLE20=Jimmy Dean - Big Bad John
TTITLE21=Don Gibson - Lonesome Number One
TTITLE22=Willie Nelson - A Moment Isn't Very Long
TTITLE23=Carl Perkins - Memphis Tennessee
TTITLE24=Ferlin Husky - Six Days On The Road
EXTD=
EXTT0=
EXTT1=
EXTT2=
EXTT3=
EXTT4=
EXTT5=
EXTT6=
EXTT7=
EXTT8=
EXTT9=
EXTT10=
EXTT11=
EXTT12=
EXTT13=
EXTT14=
EXTT15=
EXTT16=
EXTT17=
EXTT18=
EXTT19=
EXTT20=
EXTT21=
EXTT22=
EXTT23=
EXTT24=
PLAYORDER=
